<?xml version="1.0" encoding="utf-8"?>
<!-- Generator: Adobe Illustrator 25.4.1, SVG Export Plug-In . SVG Version: 6.00 Build 0)  -->
<svg version="1.1" id="Layer_1" xmlns="http://www.w3.org/2000/svg" xmlns:xlink="http://www.w3.org/1999/xlink" x="0px" y="0px"
	 viewBox="0 0 436.1 87.5" style="enable-background:new 0 0 436.1 87.5;" xml:space="preserve">
<path d="M149.4,13c0,0.7-0.1,1.3-0.2,2c-0.2,0.7-0.3,1.2-0.4,1.6H167v7.1h-6.9l1.8,11h-8.8l-1.8-11h-4.6c-1,3.2-2.4,6.2-4.3,9h-9.2
	c1.8-2.8,3.3-5.7,4.4-8.8c1.4-3.5,2.5-7.2,3-10.9H149.4z M163.3,41.2v-5.7h9.2v5.6h29.6v8.1h-19.6c1.7,4.3,4.4,8.1,7.8,11.2
	c3.3,3.1,7.4,5.4,11.8,6.6v9.9c-3.4-0.9-6.7-2.3-9.7-4.1c-2.9-1.7-5.6-3.8-8.1-6.2v8h-11.8v6.8h-9.2v-6.8h-12v-7.8
	c-4.9,4.8-11,8.2-17.6,10.1V67c4.4-1.2,8.5-3.4,11.9-6.6c3.4-3.1,6-6.9,7.7-11.2h-19.6v-8.1L163.3,41.2z M163.3,49.3h-1.1
	c-1.9,6.6-5.5,12.5-10.4,17.2h11.6V49.3z M182.9,13l-0.7,3.6h19.9v7.1h-7.9l1.7,11h-8.8l-1.6-11h-5.3c-0.7,2.2-1.3,3.8-1.8,4.9
	c-0.7,1.5-1.5,2.9-2.4,4.2h-9.4c1.9-2.7,3.4-5.6,4.5-8.7c1.4-3.6,2.4-7.2,3-11H182.9z M184.2,66.5c-2.5-2.3-4.6-5-6.4-7.9
	c-1.8-2.9-3.2-6.1-4.3-9.3h-1v17.2L184.2,66.5z"/>
<path d="M228.7,13c0,10.7-1.2,19.5-3.7,26.4h1.4v42.1h-8.3v-31c-1.9,1.9-4.1,3.6-6.4,5V42.9C217.2,39,220,29,220,13H228.7z
	 M280.1,78.7c-1.4,0.7-2.9,1.2-4.5,1.4c-2.2,0.4-4.3,0.5-6.5,0.5h-24.7c-3.5,0-6.2-0.9-7.9-2.7c-1.8-2-2.7-4.6-2.6-7.2V42.4
	l-4.7,1.5v-9.2l4.7-1.6V15.3h8.8v14.9l8.9-2.9V13h8.1v11.4l13-4.3h5.6v31c0.1,2.9-1.2,5.7-3.4,7.6c-2.1,1.9-4.8,3-7.6,3h-4v-9.1h2.2
	c1.1,0,2.1-0.4,2.8-1.3c0.7-0.9,1.1-2,1.1-3.2V30.3l-9.6,3.3v32.1h-8.2V36.3l-8.9,3v29.5c0,2.2,1.2,3.3,3.7,3.3h22.6
	c2.1,0,4.3-0.1,6.4-0.5c1.7-0.3,3.2-1,4.6-2.1L280.1,78.7z"/>
<path d="M307.4,13c0,4.6-0.3,9.3-1,13.9c-0.6,4.3-1.8,8.5-3.4,12.5h2v42.1h-8.7V50c-2,2.1-4.2,3.9-6.6,5.4V43.1
	c2.9-2.3,5.1-6.2,6.6-11.5c1.6-6.1,2.3-12.3,2.2-18.5H307.4z M358.1,44.8v11.8h-3.9v5.8c-1,2.1-2.4,4.1-4,5.8c-2,2-4.3,3.8-6.8,5.2
	c4.9,0.8,9.8,1.2,14.7,1.2v6.9c-4.4,0-8.7-0.3-13-1c-3.9-0.6-7.7-1.5-11.4-2.6c-3.7,1.1-7.5,2-11.4,2.6c-4.2,0.7-8.5,1-12.8,1v-7
	c4.7,0,9.4-0.4,14-1.2c-1.7-1.1-3.3-2.3-4.9-3.6c-1.6-1.4-3.1-2.9-4.5-4.6h9.3c2.1,2.3,5.3,4.3,9.6,5.9c2.5-0.9,4.9-2.1,7.1-3.6
	c2-1.4,3.9-3,5.5-4.8h-32.5v-5.9h-4V44.8L358.1,44.8z M355.9,14.2v26.6h-44.3v-5.9h35.5v-4.5h-35.5v-5.9h35.5v-4.4h-35.5v-5.9
	L355.9,14.2z M317.1,55.9h33.1v-4.6h-33.1V55.9z"/>
<path d="M395.1,15.5v65.1h-25.5V15.5H395.1z M375.8,44h4.3V23.6h-4.3V44z M375.8,72.7h4.3V52.1h-4.3V72.7z M384.5,44h4.5V23.6h-4.5
	V44z M384.5,72.7h4.5V52.1h-4.5V72.7z M433.1,14.2v7.7c-1.4,7.1-4.7,13.7-9.6,19c2,1,4.1,1.9,6.2,2.5c2.1,0.6,4.3,0.9,6.4,0.9v8.1
	c-7.7-0.8-14.1-2.8-19.1-6c-2.7,1.7-5.6,3-8.6,4c-3.4,1.1-6.8,1.8-10.4,2.1v-8.2c2.1,0,4.2-0.3,6.2-0.9c2.2-0.6,4.2-1.5,6.3-2.5
	c-1.3-1.4-2.5-2.9-3.6-4.5c-1.1-1.6-2-3.4-2.8-5.2c-1.9,1.1-3.9,2-6,2.5v-9.1c2.3-0.7,4.4-2.1,5.9-4c1.6-1.9,2.5-4.1,2.8-6.6
	L433.1,14.2z M434.3,54v26.5h-34.1V54H434.3z M407.9,28.3h3.2c0.7,1.5,1.5,2.9,2.4,4.3c1,1.4,2.1,2.6,3.4,3.7c4-4,7-9,8.6-14.4H413
	C411.7,24.3,410,26.5,407.9,28.3z M408.7,72.9h17.1V61.5h-17.1V72.9z"/>
<path d="M58.5,34.6c-4.2-3.9-8.2-7.7-12.2-11.6s-7.9-7.9-11.9-11.9c-0.5,0.4-0.9,0.8-1.3,1.2C27.8,17.7,22.4,23.1,17,28.5
	c-1.3,1.5-3.3,2-5.1,1.4c-2.4-0.8-3.7-3.4-2.8-5.8c0.1-0.4,0.4-0.8,0.6-1.2c0.3-0.4,0.6-0.8,1-1.1c6.7-6.7,13.3-13.3,20-20
	c2.5-2.5,5-2.5,7.5,0c6.3,6.3,12.5,12.5,18.8,18.8c0.4,0.5,0.8,0.9,1.1,1.4c0.6-0.5,1-0.9,1.3-1.3C65.2,15,71,9.3,76.7,3.5
	c1-1.2,2.5-1.8,4.1-1.7c1.8,0.1,3.3,1.3,3.8,3c0.7,1.6,0.3,3.5-0.9,4.7C75.4,17.8,67,26.1,58.5,34.6z"/>
<path d="M67.1,87.4c-8.2-0.2-14.8-2.7-20.4-8c-2.2-2.1-2.5-4.8-0.5-6.8s4.7-1.9,6.9,0.2c5.6,5.1,12.1,6.8,19.3,4.5
	S83.9,70,85.5,62.7c1.5-6.6-0.3-12.5-4.9-17.5c-1.2-1.1-1.8-2.6-1.6-4.2c0.2-1.8,1.5-3.3,3.2-3.7c1.7-0.6,3.5-0.1,4.7,1.2
	c4.1,4,6.8,9.2,7.8,14.8C97.6,69.4,87.5,84,71.3,87C69.7,87.2,68.1,87.3,67.1,87.4z"/>
<path d="M34.3,58.7c-5.8-0.1-10.4-4.8-10.3-10.5s4.8-10.4,10.5-10.3c5.8,0.1,10.4,4.8,10.3,10.5c0,0,0,0,0,0
	c0,5.7-4.6,10.3-10.3,10.3C34.4,58.7,34.3,58.7,34.3,58.7z"/>
<path d="M19.4,61.6l7.6,5.3c-0.1,0.1-0.2,0.3-0.3,0.4c-6.2,6.2-12.4,12.4-18.5,18.6c-1.2,1.4-3.1,1.9-4.9,1.3
	c-1.6-0.4-2.9-1.8-3.1-3.5c-0.3-1.5,0.1-3.1,1.2-4.1C7.4,73.6,13.5,67.6,19.4,61.6z"/>
</svg>
