<?xml version="1.0" standalone="no"?>
<!DOCTYPE svg PUBLIC "-//W3C//DTD SVG 20010904//EN"
 "http://www.w3.org/TR/2001/REC-SVG-20010904/DTD/svg10.dtd">
<svg version="1.0" xmlns="http://www.w3.org/2000/svg"
 width="256.000000pt" height="256.000000pt" viewBox="0 0 256.000000 256.000000"
 preserveAspectRatio="xMidYMid meet">
<metadata>
Created by potrace 1.14, written by Peter Selinger 2001-2017
</metadata>
<g transform="translate(0.000000,256.000000) scale(0.100000,-0.100000)"
fill="#000000" stroke="none">
<path d="M295 2553 c-125 -27 -233 -125 -275 -249 -20 -56 -20 -83 -18 -1038
l3 -981 28 -57 c48 -97 123 -164 223 -198 54 -19 92 -20 1015 -20 945 0 960 0
1021 21 108 36 184 105 234 214 18 38 19 89 22 1010 3 878 1 976 -14 1032 -31
120 -137 227 -255 258 -45 12 -207 14 -1009 14 -525 -1 -964 -3 -975 -6z"/>
</g>
</svg>
